<?xml version="1.0" encoding="utf-8"?>
<!-- Generator: Adobe Illustrator 25.2.3, SVG Export Plug-In . SVG Version: 6.00 Build 0)  -->
<svg version="1.1" id="Layer_1" xmlns="http://www.w3.org/2000/svg" xmlns:xlink="http://www.w3.org/1999/xlink" x="0px" y="0px"
	 viewBox="0 0 500 500" style="enable-background:new 0 0 500 500;" xml:space="preserve">
<style type="text/css">
	.st0{fill:#414042;}
</style>
<path class="st0" d="M431.78,213.15l-22.41-105.41c-1.57-7.38-10.54-10.29-16.15-5.25l-80.08,72.11
	c-5.61,5.05-3.65,14.27,3.53,16.61l102.49,33.3C426.34,226.84,433.35,220.53,431.78,213.15z"/>
<g>
	<path class="st0" d="M345.63,339.19C322.25,364.28,288.92,380,252,380c-70.58,0-128-57.42-128-128s57.42-128,128-128
		c35.62,0,67.9,14.63,91.13,38.19l35.34-35.34C346.18,94.23,301.41,74,252,74c-98.15,0-178,79.85-178,178s79.85,178,178,178
		c50.71,0,96.53-21.31,128.99-55.45L345.63,339.19z"/>
</g>
</svg>
